<svg width="33" height="30" viewBox="0 0 33 30" fill="none" xmlns="http://www.w3.org/2000/svg">
<path fill-rule="evenodd" clip-rule="evenodd" d="M16.3525 2.5C11.0788 2.5 6.81354 6.4125 6.81354 11.25C6.81354 17.8125 16.3525 27.5 16.3525 27.5C16.3525 27.5 25.8914 17.8125 25.8914 11.25C25.8914 6.4125 21.6261 2.5 16.3525 2.5V2.5ZM16.3525 14.375C14.4719 14.375 12.9457 12.975 12.9457 11.25C12.9457 9.525 14.4719 8.125 16.3525 8.125C18.233 8.125 19.7592 9.525 19.7592 11.25C19.7592 12.975 18.233 14.375 16.3525 14.375V14.375Z" fill="#4E6BAD"/>
<mask id="mask0_862_970" style="mask-type:alpha" maskUnits="userSpaceOnUse" x="6" y="2" width="20" height="26">
<path fill-rule="evenodd" clip-rule="evenodd" d="M16.3525 2.5C11.0788 2.5 6.81354 6.4125 6.81354 11.25C6.81354 17.8125 16.3525 27.5 16.3525 27.5C16.3525 27.5 25.8914 17.8125 25.8914 11.25C25.8914 6.4125 21.6261 2.5 16.3525 2.5V2.5ZM16.3525 14.375C14.4719 14.375 12.9457 12.975 12.9457 11.25C12.9457 9.525 14.4719 8.125 16.3525 8.125C18.233 8.125 19.7592 9.525 19.7592 11.25C19.7592 12.975 18.233 14.375 16.3525 14.375V14.375Z" fill="white"/>
</mask>
<g mask="url(#mask0_862_970)">
<rect width="32.7049" height="30" fill="#4E6BAD"/>
</g>
</svg>
