<svg width="30" height="28" viewBox="0 0 30 28" fill="none" xmlns="http://www.w3.org/2000/svg">
<path fill-rule="evenodd" clip-rule="evenodd" d="M25 3.75H5C2.93507 3.75 1.2625 5.43419 1.2625 7.5L1.25 22.499C1.25 24.5654 2.93464 26.25 5 26.25H25C27.0654 26.25 28.75 24.5654 28.75 22.5V7.5C28.75 5.43464 27.0654 3.75 25 3.75ZM3.7625 7.50104C3.7625 6.81104 4.31967 6.25 5 6.25H25C25.6846 6.25 26.25 6.81536 26.25 7.5V22.5C26.25 23.1846 25.6846 23.75 25 23.75H5C4.31536 23.75 3.75 23.1846 3.75 22.5L3.7625 7.50104ZM6.64094 11.1212C6.16789 10.8361 6.01547 10.2216 6.30049 9.74854L6.55854 9.32027C6.84356 8.84722 7.45811 8.6948 7.93116 8.97982L14.9634 13.2169L22.2932 8.80049C22.7662 8.51547 23.3808 8.66789 23.6658 9.14095L23.9255 9.57197C24.2099 10.0439 24.0589 10.657 23.5878 10.9429L15.0124 16.1475L15.0046 16.1605L6.64094 11.1212Z" fill="#979797"/>
<mask id="mask0_862_973" style="mask-type:alpha" maskUnits="userSpaceOnUse" x="1" y="3" width="28" height="24">
<path fill-rule="evenodd" clip-rule="evenodd" d="M25 3.75H5C2.93507 3.75 1.2625 5.43419 1.2625 7.5L1.25 22.499C1.25 24.5654 2.93464 26.25 5 26.25H25C27.0654 26.25 28.75 24.5654 28.75 22.5V7.5C28.75 5.43464 27.0654 3.75 25 3.75ZM3.7625 7.50104C3.7625 6.81104 4.31967 6.25 5 6.25H25C25.6846 6.25 26.25 6.81536 26.25 7.5V22.5C26.25 23.1846 25.6846 23.75 25 23.75H5C4.31536 23.75 3.75 23.1846 3.75 22.5L3.7625 7.50104ZM6.64094 11.1212C6.16789 10.8361 6.01547 10.2216 6.30049 9.74854L6.55854 9.32027C6.84356 8.84722 7.45811 8.6948 7.93116 8.97982L14.9634 13.2169L22.2932 8.80049C22.7662 8.51547 23.3808 8.66789 23.6658 9.14095L23.9255 9.57197C24.2099 10.0439 24.0589 10.657 23.5878 10.9429L15.0124 16.1475L15.0046 16.1605L6.64094 11.1212Z" fill="white"/>
</mask>
<g mask="url(#mask0_862_973)">
<rect width="30" height="30" fill="#4E6BAD"/>
</g>
</svg>
