<svg width="27" height="29" viewBox="0 0 27 29" fill="none" xmlns="http://www.w3.org/2000/svg">
<path fill-rule="evenodd" clip-rule="evenodd" d="M7.4475 13.0379C9.0675 16.4575 11.6775 19.2488 14.8613 21.0008L17.3362 18.3425C17.64 18.0163 18.09 17.9075 18.4838 18.0525C19.7438 18.4996 21.105 18.7413 22.5 18.7413C23.1188 18.7413 23.625 19.285 23.625 19.9496V24.1667C23.625 24.8313 23.1188 25.375 22.5 25.375C11.9362 25.375 3.375 16.1796 3.375 4.83333C3.375 4.16875 3.88125 3.625 4.5 3.625H8.4375C9.05625 3.625 9.5625 4.16875 9.5625 4.83333C9.5625 6.34375 9.7875 7.79375 10.2038 9.14708C10.3275 9.57 10.2375 10.0413 9.9225 10.3796L7.4475 13.0379V13.0379Z" fill="#4E6BAD"/>
<mask id="mask0_862_976" style="mask-type:alpha" maskUnits="userSpaceOnUse" x="3" y="3" width="21" height="23">
<path fill-rule="evenodd" clip-rule="evenodd" d="M7.4475 13.0379C9.0675 16.4575 11.6775 19.2488 14.8613 21.0008L17.3362 18.3425C17.64 18.0163 18.09 17.9075 18.4838 18.0525C19.7438 18.4996 21.105 18.7413 22.5 18.7413C23.1188 18.7413 23.625 19.285 23.625 19.9496V24.1667C23.625 24.8313 23.1188 25.375 22.5 25.375C11.9362 25.375 3.375 16.1796 3.375 4.83333C3.375 4.16875 3.88125 3.625 4.5 3.625H8.4375C9.05625 3.625 9.5625 4.16875 9.5625 4.83333C9.5625 6.34375 9.7875 7.79375 10.2038 9.14708C10.3275 9.57 10.2375 10.0413 9.9225 10.3796L7.4475 13.0379V13.0379Z" fill="white"/>
</mask>
<g mask="url(#mask0_862_976)">
<rect width="27" height="29" fill="#4E6BAD"/>
</g>
</svg>
