<svg width="40" height="40" viewBox="0 0 40 40" fill="none" xmlns="http://www.w3.org/2000/svg">
<path fill-rule="evenodd" clip-rule="evenodd" d="M24.5167 23.3333L24.05 22.8833C25.6833 20.9833 26.6667 18.5167 26.6667 15.8333C26.6667 9.85 21.8167 5 15.8333 5C9.85 5 5 9.85 5 15.8333C5 21.8167 9.85 26.6667 15.8333 26.6667C18.5167 26.6667 20.9833 25.6833 22.8833 24.05L23.3333 24.5167V25.8333L30.9596 33.4443C31.3502 33.8342 31.9828 33.8338 32.3731 33.4436L33.4436 32.3731C33.8338 31.9828 33.8342 31.3502 33.4443 30.9596L25.8333 23.3333H24.5167ZM8.33333 15.8333C8.33333 11.6833 11.6833 8.33333 15.8333 8.33333C19.9833 8.33333 23.3333 11.6833 23.3333 15.8333C23.3333 19.9833 19.9833 23.3333 15.8333 23.3333C11.6833 23.3333 8.33333 19.9833 8.33333 15.8333Z" fill="#C2D1D9"/>
<mask id="mask0_841_762" style="mask-type:alpha" maskUnits="userSpaceOnUse" x="5" y="5" width="29" height="29">
<path fill-rule="evenodd" clip-rule="evenodd" d="M24.5167 23.3333L24.05 22.8833C25.6833 20.9833 26.6667 18.5167 26.6667 15.8333C26.6667 9.85 21.8167 5 15.8333 5C9.85 5 5 9.85 5 15.8333C5 21.8167 9.85 26.6667 15.8333 26.6667C18.5167 26.6667 20.9833 25.6833 22.8833 24.05L23.3333 24.5167V25.8333L30.9596 33.4443C31.3502 33.8342 31.9828 33.8338 32.3731 33.4436L33.4436 32.3731C33.8338 31.9828 33.8342 31.3502 33.4443 30.9596L25.8333 23.3333H24.5167ZM8.33333 15.8333C8.33333 11.6833 11.6833 8.33333 15.8333 8.33333C19.9833 8.33333 23.3333 11.6833 23.3333 15.8333C23.3333 19.9833 19.9833 23.3333 15.8333 23.3333C11.6833 23.3333 8.33333 19.9833 8.33333 15.8333Z" fill="white"/>
</mask>
<g mask="url(#mask0_841_762)">
<rect width="40" height="40" fill="#4E6BAD"/>
</g>
</svg>
